<svg width="64" height="64" viewBox="0 0 64 64" fill="none" xmlns="http://www.w3.org/2000/svg">
<rect width="64" height="64" rx="10" fill="#B94C34"/>
<path fill-rule="evenodd" clip-rule="evenodd" d="M44.5 30.7973V37.4546C44.5 41.5826 44.5 43.648 43.5213 44.5493C43.0547 44.98 42.4653 45.2506 41.8373 45.3226C40.5213 45.4733 38.984 44.1133 35.9107 41.3946C34.5507 40.1933 33.872 39.592 33.0867 39.4346C32.6995 39.3565 32.3005 39.3565 31.9133 39.4346C31.1267 39.592 30.448 40.1933 29.0893 41.3946C26.016 44.1133 24.4787 45.4733 23.1627 45.3213C22.5336 45.2491 21.9439 44.9788 21.4787 44.5493C20.5 43.648 20.5 41.584 20.5 37.4546V30.796C20.5 25.08 20.5 22.22 22.2573 20.444C24.0147 18.6666 26.844 18.6666 32.5 18.6666C38.1573 18.6666 40.9853 18.6666 42.7427 20.4426C44.5 22.22 44.5 25.08 44.5 30.7973ZM27.5 24C27.5 23.7347 27.6054 23.4804 27.7929 23.2929C27.9804 23.1053 28.2348 23 28.5 23H36.5C36.7652 23 37.0196 23.1053 37.2071 23.2929C37.3946 23.4804 37.5 23.7347 37.5 24C37.5 24.2652 37.3946 24.5195 37.2071 24.7071C37.0196 24.8946 36.7652 25 36.5 25H28.5C28.2348 25 27.9804 24.8946 27.7929 24.7071C27.6054 24.5195 27.5 24.2652 27.5 24Z" fill="white"/>
</svg>
