<svg width="64" height="64" viewBox="0 0 64 64" fill="none" xmlns="http://www.w3.org/2000/svg">
<rect width="64" height="64" rx="10" fill="#312FA8"/>
<g clip-path="url(#clip0_1_721)">
<path opacity="0.7" d="M28.504 27C28.504 27.7956 28.1879 28.5587 27.6253 29.1213C27.0627 29.6839 26.2996 30 25.504 30C24.7083 30 23.9453 29.6839 23.3827 29.1213C22.8201 28.5587 22.504 27.7956 22.504 27C22.504 26.2044 22.8201 25.4413 23.3827 24.8787C23.9453 24.3161 24.7083 24 25.504 24C26.2996 24 27.0627 24.3161 27.6253 24.8787C28.1879 25.4413 28.504 26.2044 28.504 27Z" fill="white"/>
<path d="M19.5 20C18.7044 20 17.9413 20.3161 17.3787 20.8787C16.8161 21.4413 16.5 22.2044 16.5 23V41C16.5 41.7956 16.8161 42.5587 17.3787 43.1213C17.9413 43.6839 18.7044 44 19.5 44H45.5C46.2956 44 47.0587 43.6839 47.6213 43.1213C48.1839 42.5587 48.5 41.7956 48.5 41V23C48.5 22.2044 48.1839 21.4413 47.6213 20.8787C47.0587 20.3161 46.2956 20 45.5 20H19.5ZM45.5 22C45.7652 22 46.0196 22.1054 46.2071 22.2929C46.3946 22.4804 46.5 22.7348 46.5 23V35L38.95 31.106C38.7624 31.012 38.5501 30.9795 38.343 31.0128C38.1359 31.0462 37.9445 31.1439 37.796 31.292L30.376 38.712L25.056 35.168C24.8639 35.0401 24.6335 34.9826 24.4039 35.0052C24.1742 35.0278 23.9595 35.1291 23.796 35.292L18.504 40V41.08C18.5016 41.0534 18.5003 41.0267 18.5 41V23C18.5 22.7348 18.6054 22.4804 18.7929 22.2929C18.9804 22.1054 19.2348 22 19.5 22H45.5Z" fill="white"/>
</g>
<defs>
<clipPath id="clip0_1_721">
<rect width="32" height="32" fill="white" transform="translate(16.5 16)"/>
</clipPath>
</defs>
</svg>
