<svg width="64" height="64" viewBox="0 0 64 64" fill="none" xmlns="http://www.w3.org/2000/svg">
<rect width="64" height="64" rx="10" fill="#E1C7ED"/>
<path fill-rule="evenodd" clip-rule="evenodd" d="M44.2507 26.672C44.168 26.6666 44.0774 26.6666 43.984 26.6666H40.2867C37.2587 26.6666 34.6667 28.9813 34.6667 32C34.6667 35.0186 37.2587 37.3333 40.2867 37.3333H43.984C44.0774 37.3333 44.168 37.3333 44.2507 37.328C45.4814 37.2533 46.5694 36.3186 46.6614 35.012C46.6667 34.9266 46.6667 34.8346 46.6667 34.7493V29.2506C46.6667 29.1653 46.6667 29.0733 46.6614 28.988C46.5694 27.6813 45.4814 26.748 44.2507 26.672ZM39.9614 33.4226C40.74 33.4226 41.372 32.7853 41.372 32C41.372 31.2133 40.74 30.5773 39.9614 30.5773C39.1814 30.5773 38.548 31.2146 38.548 32C38.548 32.7866 39.1814 33.4226 39.9614 33.4226Z" fill="#79279F"/>
<path d="M44.1867 26.6693C44.1867 25.0947 44.128 23.4053 43.1227 22.196C43.0244 22.0775 42.9207 21.9636 42.812 21.8547C41.8134 20.8573 40.548 20.4147 38.9854 20.204C37.4654 20 35.5254 20 33.0747 20H30.2587C27.808 20 25.8667 20 24.3467 20.204C22.784 20.4147 21.5187 20.8573 20.52 21.8547C19.5227 22.8533 19.08 24.1187 18.8694 25.6813C18.6667 27.2013 18.6667 29.1413 18.6667 31.592V31.7413C18.6667 34.192 18.6667 36.1333 18.8707 37.652C19.0814 39.2147 19.524 40.48 20.5214 41.4787C21.52 42.476 22.7854 42.9187 24.348 43.1293C25.868 43.3333 27.808 43.3333 30.2587 43.3333H33.0747C35.5254 43.3333 37.4667 43.3333 38.9854 43.1293C40.548 42.9187 41.8134 42.476 42.812 41.4787C43.0777 41.2122 43.3129 40.9171 43.5134 40.5987C44.1134 39.6387 44.1854 38.4627 44.1854 37.332L43.9854 37.3333H40.2867C37.2587 37.3333 34.6667 35.0187 34.6667 32C34.6667 28.9813 37.2587 26.6667 40.2867 26.6667H43.984C44.0534 26.6667 44.1227 26.6667 44.1867 26.6693Z" fill="white"/>
<path d="M23.6667 25.3334C23.4015 25.3334 23.1471 25.4387 22.9596 25.6263C22.772 25.8138 22.6667 26.0682 22.6667 26.3334C22.6667 26.5986 22.772 26.8529 22.9596 27.0405C23.1471 27.228 23.4015 27.3334 23.6667 27.3334H29C29.2652 27.3334 29.5196 27.228 29.7071 27.0405C29.8947 26.8529 30 26.5986 30 26.3334C30 26.0682 29.8947 25.8138 29.7071 25.6263C29.5196 25.4387 29.2652 25.3334 29 25.3334H23.6667Z" fill="#79279F"/>
</svg>
