<svg width="64" height="64" viewBox="0 0 64 64" fill="none" xmlns="http://www.w3.org/2000/svg">
<rect x="0.5" y="0.5" width="63" height="63" rx="31.5" fill="white"/>
<rect x="0.5" y="0.5" width="63" height="63" rx="31.5" stroke="#0A0A0A"/>
<path d="M39.12 23.2801C38.8035 23.2801 38.4942 23.3739 38.2311 23.5497C37.968 23.7255 37.7629 23.9754 37.6418 24.2678C37.5207 24.5602 37.489 24.8819 37.5507 25.1922C37.6125 25.5026 37.7649 25.7877 37.9886 26.0115C38.2124 26.2352 38.4975 26.3876 38.8078 26.4493C39.1182 26.5111 39.4399 26.4794 39.7323 26.3583C40.0246 26.2372 40.2745 26.0321 40.4503 25.769C40.6262 25.5059 40.72 25.1965 40.72 24.8801C40.72 24.4557 40.5514 24.0488 40.2514 23.7487C39.9513 23.4487 39.5443 23.2801 39.12 23.2801ZM45.2533 26.5067C45.2274 25.4005 45.0202 24.306 44.64 23.2667C44.301 22.3776 43.7733 21.5725 43.0933 20.9067C42.4331 20.2233 41.6261 19.699 40.7333 19.3734C39.6969 18.9816 38.6011 18.7697 37.4933 18.7467C36.08 18.6667 35.6267 18.6667 32 18.6667C28.3733 18.6667 27.92 18.6667 26.5067 18.7467C25.3989 18.7697 24.3031 18.9816 23.2667 19.3734C22.3756 19.7023 21.5692 20.2262 20.9067 20.9067C20.2232 21.567 19.6989 22.374 19.3733 23.2667C18.9815 24.3032 18.7696 25.399 18.7467 26.5067C18.6667 27.9201 18.6667 28.3734 18.6667 32.0001C18.6667 35.6267 18.6667 36.0801 18.7467 37.4934C18.7696 38.6012 18.9815 39.697 19.3733 40.7334C19.6989 41.6262 20.2232 42.4332 20.9067 43.0934C21.5692 43.774 22.3756 44.2979 23.2667 44.6267C24.3031 45.0185 25.3989 45.2305 26.5067 45.2534C27.92 45.3334 28.3733 45.3334 32 45.3334C35.6267 45.3334 36.08 45.3334 37.4933 45.2534C38.6011 45.2305 39.6969 45.0185 40.7333 44.6267C41.6261 44.3012 42.4331 43.7768 43.0933 43.0934C43.7763 42.4302 44.3044 41.6243 44.64 40.7334C45.0202 39.6942 45.2274 38.5997 45.2533 37.4934C45.2533 36.0801 45.3333 35.6267 45.3333 32.0001C45.3333 28.3734 45.3333 27.9201 45.2533 26.5067ZM42.8533 37.3334C42.8436 38.1798 42.6903 39.0184 42.4 39.8134C42.1871 40.3937 41.8452 40.918 41.4 41.3467C40.9675 41.7874 40.4443 42.1287 39.8667 42.3467C39.0716 42.6371 38.233 42.7904 37.3867 42.8001C36.0533 42.8668 35.56 42.8801 32.0533 42.8801C28.5467 42.8801 28.0533 42.8801 26.72 42.8001C25.8412 42.8165 24.9661 42.6812 24.1333 42.4001C23.581 42.1709 23.0818 41.8305 22.6667 41.4001C22.2241 40.9717 21.8864 40.447 21.68 39.8667C21.3545 39.0603 21.1739 38.2027 21.1467 37.3334C21.1467 36.0001 21.0667 35.5067 21.0667 32.0001C21.0667 28.4934 21.0667 28.0001 21.1467 26.6667C21.1526 25.8015 21.3106 24.944 21.6133 24.1334C21.8481 23.5706 22.2083 23.069 22.6667 22.6667C23.0717 22.2083 23.5724 21.8442 24.1333 21.6001C24.9461 21.3068 25.8027 21.1535 26.6667 21.1467C28 21.1467 28.4933 21.0667 32 21.0667C35.5067 21.0667 36 21.0667 37.3333 21.1467C38.1797 21.1565 39.0183 21.3097 39.8133 21.6001C40.4192 21.825 40.963 22.1905 41.4 22.6667C41.8369 23.0763 42.1783 23.5771 42.4 24.1334C42.6963 24.9453 42.8497 25.8025 42.8533 26.6667C42.92 28.0001 42.9333 28.4934 42.9333 32.0001C42.9333 35.5067 42.92 36.0001 42.8533 37.3334ZM32 25.1601C30.6477 25.1627 29.3266 25.5661 28.2035 26.3193C27.0805 27.0725 26.2058 28.1417 25.6902 29.3918C25.1745 30.6418 25.041 32.0167 25.3064 33.3427C25.5718 34.6686 26.2243 35.8861 27.1814 36.8414C28.1385 37.7966 29.3573 38.4468 30.6838 38.7096C32.0103 38.9725 33.3849 38.8362 34.6339 38.3181C35.883 37.8 36.9505 36.9233 37.7015 35.7988C38.4525 34.6743 38.8533 33.3523 38.8533 32.0001C38.8551 31.1002 38.6789 30.2089 38.335 29.3774C37.991 28.5458 37.4861 27.7905 36.8491 27.1548C36.2122 26.5191 35.4559 26.0157 34.6237 25.6733C33.7915 25.331 32.8998 25.1566 32 25.1601ZM32 36.4401C31.1218 36.4401 30.2634 36.1797 29.5333 35.6918C28.8031 35.2039 28.234 34.5105 27.898 33.6992C27.5619 32.8879 27.474 31.9952 27.6453 31.1339C27.8166 30.2726 28.2395 29.4815 28.8604 28.8605C29.4814 28.2396 30.2725 27.8167 31.1338 27.6454C31.9951 27.4741 32.8878 27.562 33.6991 27.8981C34.5104 28.2341 35.2038 28.8032 35.6917 29.5333C36.1796 30.2635 36.44 31.1219 36.44 32.0001C36.44 32.5832 36.3251 33.1605 36.102 33.6992C35.8789 34.2379 35.5518 34.7273 35.1395 35.1396C34.7273 35.5519 34.2378 35.879 33.6991 36.1021C33.1604 36.3252 32.5831 36.4401 32 36.4401Z" fill="#0A0A0A"/>
</svg>
