<svg width="64" height="64" viewBox="0 0 64 64" fill="none" xmlns="http://www.w3.org/2000/svg">
<rect width="64" height="64" rx="10" fill="#2B6C25"/>
<g clip-path="url(#clip0_1_714)">
<path d="M27.312 33.456C28.1692 33.456 28.9913 33.7965 29.5974 34.4026C30.2035 35.0087 30.544 35.8308 30.544 36.688V44.768C30.544 45.6252 30.2035 46.4473 29.5974 47.0534C28.9913 47.6595 28.1692 48 27.312 48H19.232C18.3748 48 17.5527 47.6595 16.9466 47.0534C16.3405 46.4473 16 45.6252 16 44.768V36.688C16 35.8308 16.3405 35.0087 16.9466 34.4026C17.5527 33.7965 18.3748 33.456 19.232 33.456H27.312ZM44.768 33.456C45.6252 33.456 46.4473 33.7965 47.0534 34.4026C47.6595 35.0087 48 35.8308 48 36.688V44.768C48 45.6252 47.6595 46.4473 47.0534 47.0534C46.4473 47.6595 45.6252 48 44.768 48H36.688C35.8308 48 35.0087 47.6595 34.4026 47.0534C33.7965 46.4473 33.456 45.6252 33.456 44.768V36.688C33.456 35.8308 33.7965 35.0087 34.4026 34.4026C35.0087 33.7965 35.8308 33.456 36.688 33.456H44.768ZM27.312 16C28.1692 16 28.9913 16.3405 29.5974 16.9466C30.2035 17.5527 30.544 18.3748 30.544 19.232V27.312C30.544 28.1692 30.2035 28.9913 29.5974 29.5974C28.9913 30.2035 28.1692 30.544 27.312 30.544H19.232C18.3748 30.544 17.5527 30.2035 16.9466 29.5974C16.3405 28.9913 16 28.1692 16 27.312V19.232C16 18.3748 16.3405 17.5527 16.9466 16.9466C17.5527 16.3405 18.3748 16 19.232 16H27.312ZM44.768 16C45.6252 16 46.4473 16.3405 47.0534 16.9466C47.6595 17.5527 48 18.3748 48 19.232V27.312C48 28.1692 47.6595 28.9913 47.0534 29.5974C46.4473 30.2035 45.6252 30.544 44.768 30.544H36.688C35.8308 30.544 35.0087 30.2035 34.4026 29.5974C33.7965 28.9913 33.456 28.1692 33.456 27.312V19.232C33.456 18.3748 33.7965 17.5527 34.4026 16.9466C35.0087 16.3405 35.8308 16 36.688 16H44.768Z" fill="white"/>
</g>
<defs>
<clipPath id="clip0_1_714">
<rect width="32" height="32" fill="white" transform="translate(16 16)"/>
</clipPath>
</defs>
</svg>
