<svg width="64" height="64" viewBox="0 0 64 64" fill="none" xmlns="http://www.w3.org/2000/svg">
<rect x="0.5" y="0.5" width="63" height="63" rx="31.5" fill="white"/>
<rect x="0.5" y="0.5" width="63" height="63" rx="31.5" stroke="#0A0A0A"/>
<path d="M39.3333 27.9987C38.1396 27.9982 36.9644 28.2935 35.9128 28.8581C35.8168 28.6053 35.6462 28.3877 35.4236 28.2342C35.201 28.0807 34.937 27.9986 34.6667 27.9987H29.3333C29.1582 27.9986 28.9848 28.033 28.823 28.1C28.6611 28.167 28.5141 28.2652 28.3903 28.389C28.2665 28.5128 28.1683 28.6599 28.1013 28.8217C28.0343 28.9835 27.9999 29.1569 28 29.332V45.332C27.9999 45.5072 28.0343 45.6806 28.1013 45.8424C28.1682 46.0042 28.2665 46.1512 28.3903 46.2751C28.5141 46.3989 28.6611 46.4971 28.823 46.5641C28.9848 46.6311 29.1582 46.6655 29.3333 46.6654H34.6667C34.8418 46.6655 35.0152 46.6311 35.177 46.5641C35.3388 46.4971 35.4859 46.3989 35.6097 46.2751C35.7335 46.1512 35.8317 46.0042 35.8987 45.8424C35.9657 45.6806 36.0001 45.5072 36 45.332V37.9987C36 37.6451 36.1405 37.3059 36.3905 37.0559C36.6406 36.8059 36.9797 36.6654 37.3333 36.6654C37.6869 36.6654 38.0261 36.8059 38.2761 37.0559C38.5262 37.3059 38.6667 37.6451 38.6667 37.9987V45.332C38.6666 45.5072 38.701 45.6806 38.7679 45.8424C38.8349 46.0042 38.9331 46.1512 39.057 46.2751C39.1808 46.3989 39.3278 46.4971 39.4896 46.5641C39.6514 46.6311 39.8249 46.6655 40 46.6654H45.3333C45.5084 46.6655 45.6819 46.6311 45.8437 46.5641C46.0055 46.4971 46.1525 46.3989 46.2764 46.2751C46.4002 46.1512 46.4984 46.0042 46.5654 45.8424C46.6323 45.6806 46.6668 45.5072 46.6667 45.332V35.332C46.6642 33.3879 45.8908 31.524 44.5161 30.1493C43.1414 28.7745 41.2775 28.0011 39.3333 27.9987ZM44 43.9987H41.3333V37.9987C41.3333 36.9378 40.9119 35.9204 40.1618 35.1703C39.4116 34.4201 38.3942 33.9987 37.3333 33.9987C36.2725 33.9987 35.255 34.4201 34.5049 35.1703C33.7548 35.9204 33.3333 36.9378 33.3333 37.9987V43.9987H30.6667V30.6654H33.3333V31.6029C33.3335 31.8791 33.4194 32.1486 33.5793 32.3739C33.7391 32.5992 33.9649 32.7694 34.2256 32.8608C34.4863 32.9523 34.769 32.9606 35.0346 32.8845C35.3002 32.8085 35.5356 32.6518 35.7083 32.4362C36.3067 31.6763 37.1274 31.1221 38.056 30.8512C38.9845 30.5803 39.9745 30.6061 40.8876 30.925C41.8008 31.2439 42.5916 31.84 43.1495 32.6301C43.7075 33.4202 44.0048 34.3648 44 35.332V43.9987ZM25.3333 27.9987H20C19.8249 27.9986 19.6514 28.033 19.4896 28.1C19.3278 28.167 19.1808 28.2652 19.057 28.389C18.9331 28.5128 18.8349 28.6599 18.7679 28.8217C18.701 28.9835 18.6666 29.1569 18.6667 29.332V45.332C18.6666 45.5072 18.701 45.6806 18.7679 45.8424C18.8349 46.0042 18.9331 46.1512 19.057 46.2751C19.1808 46.3989 19.3278 46.4971 19.4896 46.5641C19.6514 46.6311 19.8249 46.6655 20 46.6654H25.3333C25.5084 46.6655 25.6819 46.6311 25.8437 46.5641C26.0055 46.4971 26.1525 46.3989 26.2764 46.2751C26.4002 46.1512 26.4984 46.0042 26.5654 45.8424C26.6323 45.6806 26.6668 45.5072 26.6667 45.332V29.332C26.6668 29.1569 26.6323 28.9835 26.5654 28.8217C26.4984 28.6599 26.4002 28.5128 26.2764 28.389C26.1525 28.2652 26.0055 28.167 25.8437 28.1C25.6819 28.033 25.5084 27.9986 25.3333 27.9987ZM24 43.9987H21.3333V30.6654H24V43.9987ZM22.6862 18.056C22.1027 18.0211 21.5181 18.1052 20.9682 18.3033C20.4182 18.5014 19.9142 18.8092 19.4869 19.2082C19.0597 19.6071 18.718 20.0888 18.4827 20.6239C18.2475 21.159 18.1235 21.7364 18.1184 22.321C18.1132 22.9055 18.2271 23.485 18.4529 24.0242C18.6788 24.5633 19.0119 25.0509 19.4321 25.4573C19.8523 25.8637 20.3508 26.1803 20.8972 26.388C21.4437 26.5957 22.0266 26.6901 22.6107 26.6654H22.6484C23.2335 26.7001 23.8195 26.6152 24.3706 26.4158C24.9218 26.2165 25.4265 25.9068 25.8539 25.5058C26.2813 25.1048 26.6225 24.6208 26.8565 24.0835C27.0906 23.5462 27.2126 22.9667 27.2152 22.3807C27.2178 21.7946 27.1008 21.2141 26.8715 20.6747C26.6421 20.1354 26.3052 19.6485 25.8813 19.2437C25.4575 18.8389 24.9555 18.5249 24.4061 18.3207C23.8568 18.1165 23.2715 18.0264 22.6862 18.056ZM22.6484 23.9987H22.6107C22.3801 24.0267 22.1462 24.0051 21.9246 23.9353C21.7031 23.8655 21.4991 23.7491 21.3262 23.594C21.1533 23.4389 21.0156 23.2486 20.9223 23.0359C20.829 22.8232 20.7822 22.593 20.7852 22.3607C20.7852 21.3659 21.5312 20.7227 22.6862 20.7227C22.9191 20.6916 23.156 20.7109 23.3809 20.7791C23.6058 20.8473 23.8134 20.9629 23.9898 21.1181C24.1663 21.2733 24.3074 21.4645 24.4037 21.6789C24.5 21.8932 24.5493 22.1257 24.5482 22.3607C24.5482 23.3555 23.8021 23.9987 22.6484 23.9987Z" fill="#0A0A0A"/>
</svg>
